#!OML:ASF X:\für Bonn\!DataBase\2005_08_11_Bastian_Final\c3d\Bastian.ASF
:FULLY-SPECIFIED
:DEGREES
521
root -2.38547 1.18605 21.5071 -1003.24 -1.7794 -178.687
lowerback 12.7896 -0.794692 0.936942
upperback 10.039 -2.09029 0.859547
thorax 3.40534 -1.59526 0.536259
lowerneck -10.4534 -4.40604 -6.96361
upperneck 6.94698 -5.54495 6.11563
head 4.1432 -2.63568 2.62438
rclavicle -1.11319e-014 7.55382e-015
rhumerus -61.7844 57.9005 -108.991
rradius 25.3893
rwrist -12.8136
rhand -16.825 -2.82096
rfingers 7.12502
rthumb 9.40418 -32.5912
lclavicle -1.11319e-014 7.55382e-015
lhumerus -49.6242 -52.0428 106.171
lradius 24.4954
lwrist 31.4489
lhand -15.3856 0.415363
lfingers 7.12502
lthumb 10.7928 30.1181
rfemur 5.1476 7.62022 25.1693
rtibia 31.0809
rfoot -22.0956 -33.3867
rtoes 2.72332
lfemur 5.13876 -5.12793 -18.5792
ltibia 23.8642
lfoot 12.3198 -5.32998
ltoes -10.453
522
root -2.38512 1.185 21.5077 -1003.2 -1.77331 -178.678
lowerback 12.7763 -0.809512 0.969898
upperback 9.97331 -2.09507 0.855624
thorax 3.34051 -1.58966 0.515852
lowerneck -10.6818 -4.43609 -6.96383
upperneck 6.85159 -5.57083 6.15484
head 4.15432 -2.64272 2.631
rclavicle -1.03368e-014 1.22253e-014
rhumerus -61.6013 57.7815 -108.746
rradius 25.3088
rwrist -12.7518
rhand -16.6568 -2.83007
rfingers 7.12502
rthumb 9.5665 -32.5929
lclavicle -1.03368e-014 1.22253e-014
lhumerus -49.4419 -51.6652 105.587
lradius 24.8149
lwrist 31.3395
lhand -14.8267 0.441896
lfingers 7.12502
lthumb 11.3319 30.1157
rfemur 5.13162 7.66752 25.1798
rtibia 31.0607
rfoot -22.2516 -33.4717
rtoes 2.89785
lfemur 5.10815 -5.02315 -18.5227
ltibia 23.8221
lfoot 12.2863 -5.37498
ltoes -10.6156
523
root -2.38614 1.18478 21.5069 -1003.19 -1.75369 -178.672
lowerback 12.7758 -0.827074 1.03189
upperback 9.91571 -2.10272 0.851139
thorax 3.27691 -1.5851 0.479048
lowerneck -10.9077 -4.46501 -6.93137
upperneck 6.73931 -5.59555 6.15636
head 4.15767 -2.65028 2.62097
rclavicle -3.97569e-016 7.25564e-015
rhumerus -61.697 57.777 -108.791
rradius 25.2914
rwrist -12.8663
rhand -16.5676 -2.89224
rfingers 7.12502
rthumb 9.65256 -32.6511
lclavicle -3.97569e-016 7.25564e-015
lhumerus -49.3009 -51.3915 105.114
lradius 25.0655
lwrist 31.4111
lhand -14.3124 0.476217
lfingers 7.12502
lthumb 11.8279 30.1222
rfemur 5.11866 7.60205 25.1653
rtibia 31.0453
rfoot -22.2565 -33.531
rtoes 2.84007
lfemur 5.11404 -4.96347 -18.4684
ltibia 23.7747
lfoot 12.2315 -5.36939
ltoes -10.621
524
root -2.38577 1.18381 21.5093 -1003.15 -1.7767 -178.656
lowerback 12.761 -0.834254 1.03235
upperback 9.85164 -2.1001 0.84587
thorax 3.21554 -1.57746 0.474603
lowerneck -11.0802 -4.50108 -6.93886
upperneck 6.59207 -5.6297 6.18878
head 4.14422 -2.66318 2.62732
rclavicle 2.34566e-014 -2.84262e-014
rhumerus -61.5814 57.6757 -108.623
rradius 25.2148
rwrist -12.8365
rhand -16.4187 -2.91946
rfingers 7.12502
rthumb 9.7962 -32.6716
lclavicle 2.34566e-014 -2.84262e-014
lhumerus -49.1557 -51.1368 104.69
lradius 25.2337
lwrist 31.4949
lhand -13.836 0.470869
lfingers 7.12502
lthumb 12.2872 30.0899
rfemur 5.09713 7.64214 25.1378
rtibia 31.0234
rfoot -22.3864 -33.6179
rtoes 2.95955
lfemur 5.08228 -4.88982 -18.4505
ltibia 23.742
lfoot 12.17 -5.36499
ltoes -10.5909
525
root -2.38666 1.18364 21.5098 -1003.13 -1.7811 -178.645
lowerback 12.7352 -0.847669 1.07014
upperback 9.81086 -2.10638 0.834399
thorax 3.18397 -1.57404 0.442543
lowerneck -11.3308 -4.53445 -6.91347
upperneck 6.46742 -5.65984 6.20462
head 4.14864 -2.67295 2.62202
rclavicle -4.37326e-015 9.44227e-015
rhumerus -61.6165 57.6844 -108.626
rradius 25.2063
rwrist -12.9247
rhand -16.2814 -3.01652
rfingers 7.12502
rthumb 9.92865 -32.7624
lclavicle -4.37326e-015 9.44227e-015
lhumerus -48.9274 -50.8885 104.22
lradius 25.302
lwrist 31.5498
lhand -13.3582 0.354212
lfingers 7.12502
lthumb 12.7479 29.9451
rfemur 5.07659 7.63369 25.1094
rtibia 31.0139
rfoot -22.4409 -33.6688
rtoes 3.02954
lfemur 5.07423 -4.81078 -18.4114
ltibia 23.6972
lfoot 12.1226 -5.36457
ltoes -10.6192
526
root -2.38668 1.18233 21.5102 -1003.1 -1.75846 -178.648
lowerback 12.7408 -0.855393 1.13495
upperback 9.74793 -2.09959 0.823687
thorax 3.11113 -1.56166 0.396641
lowerneck -11.5528 -4.55976 -6.85933
upperneck 6.38547 -5.68829 6.22018
head 4.16049 -2.68201 2.61237
rclavicle -2.46493e-014 3.02153e-014
rhumerus -61.6929 57.6588 -108.674
rradius 25.1763
rwrist -12.9589
rhand -16.1537 -3.0693
rfingers 7.12502
rthumb 10.0519 -32.8092
lclavicle -2.46493e-014 3.02153e-014
lhumerus -48.818 -50.6586 103.822
lradius 25.4122
lwrist 31.5788
lhand -12.9388 0.317193
lfingers 7.12502
lthumb 13.1522 29.8824
rfemur 5.05555 7.59827 25.1113
rtibia 30.9942
rfoot -22.4892 -33.7346
rtoes 2.92284
lfemur 5.0627 -4.68084 -18.3265
ltibia 23.6489
lfoot 12.0699 -5.40916
ltoes -10.6182
527
root -2.38734 1.18242 21.5109 -1003.07 -1.75886 -178.642
lowerback 12.7162 -0.867118 1.16048
upperback 9.68236 -2.10108 0.827447
thorax 3.05323 -1.5552 0.387632
lowerneck -11.7358 -4.58794 -6.87462
upperneck 6.27307 -5.71079 6.24371
head 4.15843 -2.68976 2.6177
rclavicle 1.23246e-014 -1.69961e-014
rhumerus -61.5851 57.5434 -108.497
rradius 25.0926
rwrist -12.8673
rhand -15.9943 -3.0739
rfingers 7.12502
rthumb 10.2057 -32.8063
lclavicle 1.23246e-014 -1.69961e-014
lhumerus -48.7426 -50.4383 103.548
lradius 25.4489
lwrist 31.5753
lhand -12.5705 0.212309
lfingers 7.12502
lthumb 13.5072 29.7543
rfemur 5.02999 7.59879 25.0904
rtibia 30.977
rfoot -22.5425 -33.7996
rtoes 2.96862
lfemur 5.04322 -4.5681 -18.2771
ltibia 23.6181
lfoot 12.0133 -5.42802
ltoes -10.5585
528
root -2.38729 1.18189 21.5116 -1003.04 -1.76068 -178.62
lowerback 12.7092 -0.883561 1.18871
upperback 9.62911 -2.11077 0.819947
thorax 2.99871 -1.55375 0.366401
lowerneck -11.9393 -4.61347 -6.82464
upperneck 6.13951 -5.73479 6.22889
head 4.15016 -2.69867 2.60037
rclavicle 6.36111e-015 -1.85864e-014
rhumerus -61.3668 57.416 -108.234
rradius 25.002
rwrist -12.7536
rhand -15.7916 -3.07133
rfingers 7.12502
rthumb 10.4012 -32.7941
lclavicle 6.36111e-015 -1.85864e-014
lhumerus -48.6868 -50.2679 103.301
lradius 25.4737
lwrist 31.5272
lhand -12.2805 0.139894
lfingers 7.12502
lthumb 13.7867 29.6631
rfemur 5.01691 7.61183 25.0796
rtibia 30.9655
rfoot -22.721 -33.8635
rtoes 3.18124
lfemur 5.03342 -4.46654 -18.2235
ltibia 23.5965
lfoot 11.9445 -5.42844
ltoes -10.4145
529
root -2.38817 1.18174 21.5117 -1003.02 -1.74115 -178.611
lowerback 12.6973 -0.893402 1.24451
upperback 9.5678 -2.10796 0.819992
thorax 2.93776 -1.54427 0.336441
lowerneck -12.1241 -4.63803 -6.77332
upperneck 6.03519 -5.75928 6.20505
head 4.14746 -2.70854 2.58014
rclavicle 6.36111e-015 -1.70955e-014
rhumerus -61.4208 57.3666 -108.245
rradius 24.9455
rwrist -12.7653
rhand -15.7013 -3.05765
rfingers 7.12502
rthumb 10.4884 -32.776
lclavicle 6.36111e-015 -1.70955e-014
lhumerus -48.657 -50.1402 103.149
lradius 25.4329
lwrist 31.4555
lhand -12.0265 0.0511934
lfingers 7.12502
lthumb 14.0315 29.5576
rfemur 4.99132 7.61487 25.0817
rtibia 30.9542
rfoot -22.8091 -33.9375
rtoes 3.29974
lfemur 5.03158 -4.32894 -18.1394
ltibia 23.5596
lfoot 11.8481 -5.46264
ltoes -10.4103
530
root -2.3882 1.18104 21.5107 -1003 -1.74016 -178.602
lowerback 12.68 -0.902662 1.28614
upperback 9.53054 -2.10918 0.806388
thorax 2.90536 -1.53879 0.299677
lowerneck -12.3568 -4.66173 -6.73225
upperneck 5.92464 -5.78178 6.20961
head 4.15158 -2.71584 2.56964
rclavicle -5.56597e-015 -5.66536e-015
rhumerus -61.0462 57.1551 -107.837
rradius 24.8108
rwrist -12.5201
rhand -15.4981 -2.96289
rfingers 7.12502
rthumb 10.6843 -32.6712
lclavicle -5.56597e-015 -5.66536e-015
lhumerus -48.6558 -50.1085 103.042
lradius 25.389
lwrist 31.3986
lhand -11.8291 -0.0577713
lfingers 7.12502
lthumb 14.2216 29.4353
rfemur 4.97268 7.58813 25.0652
rtibia 30.9473
rfoot -22.8085 -33.9943
rtoes 3.19195
lfemur 5.03237 -4.21999 -18.0813
ltibia 23.5394
lfoot 11.7366 -5.43858
ltoes -10.4606
